<svg width="243" height="242" xmlns="http://www.w3.org/2000/svg" xmlns:xlink="http://www.w3.org/1999/xlink" xml:space="preserve" overflow="hidden"><g transform="translate(-3857 -224)"><path d="M3865.5 345C3865.5 282.316 3916.32 231.5 3979 231.5 4041.68 231.5 4092.5 282.316 4092.5 345 4092.5 407.684 4041.68 458.5 3979 458.5 3916.32 458.5 3865.5 407.684 3865.5 345Z" stroke="#005375" stroke-width="10.8856" stroke-miterlimit="8" fill="none" fill-rule="evenodd"/><path d="M3859.5 345C3859.5 279.554 3912.78 226.5 3978.5 226.5 4044.22 226.5 4097.5 279.554 4097.5 345 4097.5 410.446 4044.22 463.5 3978.5 463.5 3912.78 463.5 3859.5 410.446 3859.5 345Z" stroke="#005375" stroke-width="4.58333" stroke-miterlimit="8" fill="none" fill-rule="evenodd"/><path d="M3896.42 281.803C3896.42 281.803 3895.62 279.684 3894.81 278.359 3894 277.299 3894.27 277.299 3894.27 277.299 3894.27 277.299 3894.27 276.769 3894.81 276.504 3895.35 276.239 3895.88 275.974 3896.69 276.769 3897.77 277.829 3898.31 279.684 3898.31 279.684 3898.31 279.684 3899.12 281.803 3898.58 284.188 3897.77 286.573 3898.31 285.248 3898.04 285.778 3897.77 286.308 3897.77 286.573 3897.77 287.102 3897.5 287.632 3897.23 288.162 3896.96 287.367 3896.69 286.837 3896.69 286.043 3896.69 285.248 3896.69 283.923 3896.42 282.863 3896.42 281.803ZM3898.58 291.607C3898.58 291.607 3899.92 294.786 3901.27 296.641 3902.35 298.496 3905.04 303 3907.46 301.675 3908.54 301.145 3907.46 299.025 3906.38 296.906 3905.04 294.786 3903.69 292.667 3903.69 292.931 3903.69 294.521 3904.5 295.846 3905.04 297.171 3905.04 297.701 3905.58 298.231 3905.58 298.496 3905.31 299.82 3903.96 297.966 3903.42 297.436 3903.15 296.906 3901.81 295.051 3900.73 293.196 3899.65 291.342 3898.58 289.487 3898.04 288.427 3897.5 287.367 3897.23 288.692 3897.5 288.957 3897.5 289.487 3898.58 291.607 3898.58 291.607ZM3902.35 288.162C3902.35 288.162 3901.81 289.222 3901.81 287.367 3901.81 286.573 3901.81 285.778 3901.81 284.453 3902.62 279.154 3905.85 275.179 3907.73 273.59 3909.62 272 3909.88 273.06 3910.15 273.855 3910.15 274.649 3910.15 275.444 3910.42 275.974 3910.42 276.504 3909.88 282.333 3909.88 284.718 3909.88 286.573 3910.69 284.718 3910.96 284.453 3910.96 284.453 3911.5 283.393 3911.77 282.863 3912.31 282.333 3912.85 282.333 3913.12 282.068 3913.92 281.538 3914.46 282.068 3914.73 282.598 3915 283.128 3914.46 284.188 3914.19 284.718 3913.92 285.248 3913.65 285.513 3913.12 285.248 3912.58 285.248 3912.58 285.513 3912.04 286.043 3911.5 286.573 3910.42 290.017 3910.15 290.812 3909.88 291.872 3908.81 292.137 3908.54 292.137 3908 292.137 3906.92 291.872 3906.92 291.342 3906.92 290.812 3907.19 279.419 3906.92 278.624 3906.92 277.829 3906.92 278.359 3906.38 278.889 3906.12 279.419 3904.77 281.803 3903.96 283.923 3903.15 285.513 3902.62 287.102 3902.35 287.102 3902.08 287.632 3902.35 288.162 3902.35 288.162Z" fill="#005375" fill-rule="evenodd"/><path d="M3939 265.347C3939 264.816 3939 264.021 3939.26 263.225 3939.26 262.694 3939.26 262.163 3939.52 261.898 3939.77 260.837 3939.77 260.572 3940.8 260.572 3941.58 260.306 3941.83 262.959 3941.83 263.225 3941.83 263.49 3942.09 265.878 3941.58 266.674 3941.32 267.47 3940.55 267.735 3939.77 267.204 3939.26 266.674 3939 266.408 3939 265.347ZM3943.64 250.755C3942.86 251.02 3943.12 251.551 3943.38 251.816 3943.89 252.082 3944.15 252.347 3944.67 252.347 3944.92 252.347 3944.92 252.612 3944.92 252.612 3945.18 252.878 3945.18 255 3944.92 255.265 3944.92 255.265 3943.64 256.327 3943.64 256.592 3943.38 256.592 3942.61 257.388 3942.09 257.653 3941.32 258.184 3940.8 258.184 3940.8 258.449 3940.8 258.98 3940.55 258.98 3940.8 259.51 3941.06 260.041 3942.61 259.51 3943.12 259.51 3943.64 259.245 3944.92 258.449 3945.44 257.918 3945.95 257.653 3946.98 256.857 3946.98 256.592 3947.24 256.327 3947.24 256.592 3947.24 257.123 3946.98 257.653 3946.47 257.918 3946.21 258.184 3945.95 258.449 3945.7 259.245 3946.47 259.776 3946.98 260.041 3946.21 261.633 3946.21 261.633 3945.95 261.898 3945.7 261.633 3945.44 262.163 3945.18 264.021 3945.44 264.021 3945.95 264.286 3946.47 264.286 3946.98 264.021 3946.98 264.551 3946.98 265.082 3946.98 265.347 3946.98 265.612 3947.24 265.878 3947.24 266.408 3947.24 266.674 3947.76 268 3948.53 267.735 3948.79 267.204 3949.05 266.674 3948.79 263.49 3949.05 262.959 3949.3 262.429 3949.82 261.367 3950.33 260.572 3950.59 259.776 3950.33 258.449 3949.56 257.918 3948.79 257.388 3948.53 257.388 3948.79 257.123 3948.79 256.857 3949.56 256.327 3949.82 256.061 3950.08 255.796 3951.11 254.204 3951.36 253.408 3951.62 252.878 3951.36 252.347 3951.11 252.082 3951.11 251.816 3951.11 251.816 3951.36 251.816 3951.36 251.551 3952.39 251.02 3952.39 251.02 3952.39 251.02 3954.2 249.694 3953.94 250.755 3953.94 252.082 3953.94 254.469 3953.68 255.531 3953.42 256.327 3953.42 256.327 3952.91 258.184 3952.65 260.041 3952.14 260.572 3952.14 260.837 3951.88 261.102 3951.62 261.367 3951.62 261.633 3951.36 261.633 3950.33 261.633 3951.11 262.163 3951.88 262.429 3952.65 261.633 3953.17 261.367 3953.42 261.102 3953.94 259.776 3954.2 259.245 3954.2 258.714 3954.45 257.123 3954.45 256.857 3954.45 256.327 3954.71 256.061 3954.71 255.265 3954.71 254.735 3954.97 253.674 3955.23 252.082 3955.48 250.755 3956 249.429 3954.97 249.163 3953.42 249.163 3953.17 249.429 3952.39 249.694 3951.62 249.959 3949.3 251.816 3948.27 252.612 3947.5 253.143 3947.24 253.143 3947.5 252.082 3947.76 251.02 3949.56 250.755 3950.59 249.429 3951.62 247.837 3951.36 247.571 3950.33 244.918 3949.05 242.531 3948.02 242 3946.47 242 3945.18 242.265 3945.7 242.796 3946.21 243.857 3946.73 245.184 3946.47 247.571 3946.21 248.367 3945.7 248.898 3945.7 249.694 3945.7 249.694 3945.7 249.694 3945.95 250.225 3945.18 250.49 3944.41 250.755 3944.41 250.49 3943.64 250.755Z" fill="#005375" fill-rule="evenodd"/><path d="M4006.38 255.487C4006.38 255.487 4006.91 255.487 4006.91 255.225 4007.18 254.962 4008.5 255.75 4009.03 256.012 4009.56 256.275 4012.74 257.85 4011.68 258.9 4010.62 259.687 4007.71 259.687 4007.97 259.162 4008.24 258.375 4007.71 257.325 4007.44 257.062 4007.18 256.8 4006.65 256.275 4006.65 255.75 4006.38 255.487 4006.38 255.75 4006.38 255.487ZM4005.06 240.525C4005.06 240.787 4005.85 243.412 4005.59 243.937 4005.59 244.462 4005.32 247.35 4004.53 248.4 4004.26 248.662 4004.26 249.187 4004 249.187 4003.21 249.45 4002.41 249.45 4001.88 249.45 4000.82 249.45 4000.82 249.45 4000.82 250.762 4000.56 251.025 4003.47 250.762 4002.94 251.55 4002.68 251.812 4002.94 252.075 4001.62 253.65 4000.29 255.75 3998.71 257.325 3997.65 258.112 3996.59 259.162 3996.06 259.425 3995.53 259.425 3995 259.687 3996.32 261 3998.71 259.425 4001.09 257.85 4000.82 258.112 4001.35 257.587 4001.88 257.062 4004.79 253.125 4005.06 252.075 4005.59 251.025 4005.59 250.762 4006.65 250.237 4007.97 249.975 4011.68 248.4 4012.47 247.612 4013 246.562 4012.74 245.775 4011.68 246.037 4010.88 246.3 4009.82 247.35 4008.5 247.612 4007.44 248.137 4006.91 248.137 4007.44 247.35 4007.97 246.3 4007.97 244.987 4008.24 244.2 4008.5 243.15 4008.24 242.1 4007.44 241.312 4007.18 241.05 4005.32 240 4005.06 240.525Z" fill="#005375" fill-rule="evenodd"/><path d="M3887.47 352.828C3887.47 353.093 3887.47 353.093 3887.47 353.093 3887.74 353.888 3887.47 354.418 3886.42 354.683 3877.17 356.008 3877.17 356.008 3877.17 356.008 3876.11 356.273 3875.58 356.008 3875.32 355.478 3875.32 355.213 3875.58 354.948 3875.58 354.683 3876.11 354.153 3876.11 353.888 3876.11 353.623 3876.11 352.828 3875.58 352.299 3875.06 352.299 3874.26 352.563 3874 353.093 3874.26 354.683 3874.26 355.743 3874.79 356.538 3875.58 357.332 3876.64 358.127 3877.96 358.657 3879.55 358.392 3886.94 357.067 3886.94 357.067 3886.94 357.067 3887.74 357.067 3888.26 357.332 3888.26 358.392 3888.26 358.657 3888.26 358.657 3888.26 358.657 3889.06 358.392 3889.06 358.392 3889.06 358.392 3888.26 352.563 3888.26 352.563 3888.26 352.563 3887.47 352.828 3887.47 352.828 3887.47 352.828ZM3888.79 361.836C3888.79 362.101 3888.79 362.101 3888.79 362.101 3889.06 363.426 3888.79 363.956 3887.74 364.221 3879.55 366.605 3879.55 366.605 3879.55 366.605 3878.75 366.87 3878.23 366.34 3877.96 365.28 3877.7 365.015 3877.7 365.015 3877.7 365.015 3876.91 365.28 3876.91 365.28 3876.91 365.28 3878.49 372.434 3878.49 372.434 3878.49 372.434 3879.28 372.169 3879.28 372.169 3879.28 372.169 3879.28 371.639 3879.28 371.639 3879.28 371.639 3879.02 370.579 3879.28 369.784 3880.34 369.519 3888.26 367.4 3888.26 367.4 3888.26 367.4 3889.32 367.135 3890.11 367.4 3890.38 368.725 3890.38 368.989 3890.38 368.989 3890.38 368.989 3891.17 368.725 3891.17 368.725 3891.17 368.725 3889.58 361.571 3889.58 361.571 3889.58 361.571 3888.79 361.836 3888.79 361.836 3888.79 361.836ZM3887.21 381.971C3885.36 384.091 3885.36 384.091 3885.36 384.091 3885.09 384.621 3884.57 384.886 3884.3 384.886 3884.04 384.621 3883.77 384.356 3883.51 383.826 3883.25 383.031 3883.25 383.031 3883.25 383.031 3882.45 383.296 3882.45 383.296 3882.45 383.296 3885.09 390.449 3885.09 390.449 3885.09 390.449 3885.89 389.919 3885.89 389.919 3885.89 389.919 3885.62 389.125 3885.89 388.065 3886.68 387.005 3894.87 377.997 3894.87 377.997 3894.87 377.997 3893.81 374.818 3893.81 374.818 3893.81 374.818 3893.28 375.348 3893.28 375.348 3893.28 375.348 3882.72 376.143 3882.72 376.143 3882.72 376.143 3881.4 376.143 3880.34 375.878 3880.08 374.818 3880.08 374.553 3880.08 374.553 3880.08 374.553 3879.28 374.818 3879.28 374.818 3879.28 374.818 3881.4 380.647 3881.4 380.647 3881.4 380.647 3882.19 380.117 3882.19 380.117 3882.19 380.117 3882.19 379.852 3882.19 379.852 3882.19 379.852 3881.66 379.057 3881.66 378.262 3881.66 377.997 3881.66 377.732 3882.19 377.467 3882.98 377.467 3885.36 377.467 3885.36 377.467 3885.36 377.467 3887.21 381.971 3887.21 381.971 3887.21 381.971ZM3888 381.177C3886.68 377.202 3886.68 377.202 3886.68 377.202 3891.96 376.938 3891.96 376.938 3891.96 376.938 3888 381.177 3888 381.177 3888 381.177ZM3896.72 388.86C3890.38 393.893 3890.38 393.893 3890.38 393.893 3889.06 394.423 3889.06 395.483 3889.85 396.808 3889.32 397.338 3889.32 397.338 3889.32 397.338 3886.42 392.569 3886.42 392.569 3886.42 392.569 3887.21 392.039 3887.21 392.039 3887.21 392.039 3887.21 392.304 3887.21 392.304 3887.21 392.304 3887.74 393.364 3888.53 393.364 3889.06 392.834 3897.25 387.005 3897.25 387.005 3897.25 387.005 3897.25 386.21 3896.98 385.68 3896.72 385.151 3897.25 384.621 3897.25 384.621 3897.25 384.621 3899.62 388.595 3899.62 388.595 3899.62 388.595 3896.98 402.106 3896.98 402.106 3896.98 402.106 3902.26 398.132 3902.26 398.132 3902.26 398.132 3902.79 397.602 3903.32 397.338 3903.32 396.808 3903.32 396.543 3903.06 396.013 3902.53 395.218 3902.53 394.953 3902.53 394.953 3902.53 394.953 3903.32 394.423 3903.32 394.423 3903.32 394.423 3906.23 399.457 3906.23 399.457 3906.23 399.457 3905.43 399.987 3905.43 399.987 3905.43 399.987 3905.43 399.722 3905.43 399.722 3905.43 399.722 3904.64 398.662 3904.11 398.132 3903.58 398.662 3894.34 405.815 3894.34 405.815 3894.34 405.815 3893.81 404.756 3893.81 404.756 3893.81 404.756 3896.72 388.86 3896.72 388.86 3896.72 388.86ZM3912.83 416.678C3908.08 411.379 3908.08 411.379 3908.08 411.379 3907.55 411.909 3907.55 411.909 3907.55 411.909 3908.08 412.704 3908.6 413.499 3908.6 413.764 3908.87 414.293 3908.6 414.558 3908.34 415.088 3906.23 417.208 3906.23 417.208 3906.23 417.208 3905.7 417.208 3904.91 416.678 3904.38 415.883 3902.26 413.234 3902.53 410.319 3904.91 407.14 3907.55 404.491 3910.19 404.491 3912.57 406.61 3914.15 408.465 3914.42 410.584 3913.36 412.704 3913.89 413.499 3913.89 413.499 3913.89 413.499 3916.53 410.319 3916.53 410.319 3916.53 410.319 3916 410.054 3916 410.054 3916 410.054 3916 410.054 3915.74 410.054 3915.47 409.79 3915.47 409.525 3915.21 409.26 3914.94 408.73 3914.15 407.405 3913.36 406.345 3912.83 405.551 3909.4 402.106 3905.96 401.841 3902.79 404.756 3899.62 408.465 3899.89 412.174 3903.58 416.413 3904.64 417.738 3906.23 418.797 3908.08 419.592 3910.45 417.208 3910.45 417.208 3910.45 417.208 3910.98 416.413 3911.77 416.413 3912.3 417.473 3912.83 416.678 3912.83 416.678 3912.83 416.678ZM3918.64 415.618C3914.42 423.036 3914.42 423.036 3914.42 423.036 3913.62 424.096 3913.89 425.156 3915.21 425.951 3914.94 426.48 3914.94 426.48 3914.94 426.48 3910.72 423.566 3910.72 423.566 3910.72 423.566 3910.98 422.771 3910.98 422.771 3910.98 422.771 3911.25 422.771 3911.25 422.771 3911.25 422.771 3912.04 423.566 3912.83 423.301 3913.09 422.506 3918.38 413.499 3918.38 413.499 3918.38 413.499 3918.11 412.969 3917.85 412.439 3917.32 412.174 3917.58 411.379 3917.58 411.379 3917.58 411.379 3921.28 414.028 3921.28 414.028 3921.28 414.028 3923.66 427.54 3923.66 427.54 3923.66 427.54 3927.09 421.712 3927.09 421.712 3927.09 421.712 3927.36 420.917 3927.62 420.387 3927.62 420.122 3927.36 419.857 3927.09 419.327 3926.3 418.797 3926.04 418.532 3926.04 418.532 3926.04 418.532 3926.57 417.738 3926.57 417.738 3926.57 417.738 3931.06 421.182 3931.06 421.182 3931.06 421.182 3930.79 421.977 3930.79 421.977 3930.79 421.977 3930.53 421.712 3930.53 421.712 3930.53 421.712 3929.47 420.917 3928.94 420.917 3928.42 421.712 3922.34 432.044 3922.34 432.044 3922.34 432.044 3921.55 431.514 3921.55 431.514 3921.55 431.514 3918.64 415.618 3918.64 415.618 3918.64 415.618ZM3936.34 433.634C3936.34 436.548 3936.34 436.548 3936.34 436.548 3936.34 437.343 3936.34 437.608 3936.08 437.873 3935.81 438.138 3935.55 438.138 3934.75 437.873 3934.23 437.608 3934.23 437.608 3934.23 437.608 3933.96 438.403 3933.96 438.403 3933.96 438.403 3940.04 441.317 3940.04 441.317 3940.04 441.317 3940.3 440.522 3940.3 440.522 3940.3 440.522 3939.51 439.992 3939.25 439.197 3939.25 437.608 3939.51 424.891 3939.51 424.891 3939.51 424.891 3936.6 423.566 3936.6 423.566 3936.6 423.566 3936.6 424.361 3936.6 424.361 3936.6 424.361 3929.47 432.839 3929.47 432.839 3929.47 432.839 3928.68 434.164 3927.62 434.428 3926.83 433.899 3926.57 433.899 3926.57 433.899 3926.57 433.899 3926.3 434.693 3926.3 434.693 3926.3 434.693 3931.32 437.078 3931.32 437.078 3931.32 437.078 3931.58 436.283 3931.58 436.283 3931.58 436.283 3931.32 436.283 3931.32 436.283 3931.32 436.283 3930.53 435.753 3930 435.488 3930 435.223 3929.74 434.958 3930 434.428 3930.53 433.899 3932.11 431.779 3932.11 431.779 3932.11 431.779 3936.34 433.634 3936.34 433.634 3936.34 433.634ZM3936.6 432.309C3933.17 430.719 3933.17 430.719 3933.17 430.719 3936.6 426.48 3936.6 426.48 3936.6 426.48 3936.6 432.309 3936.6 432.309 3936.6 432.309ZM3947.96 431.779C3954.83 446.086 3954.83 446.086 3954.83 446.086 3955.89 446.351 3955.89 446.351 3955.89 446.351 3959.06 434.428 3959.06 434.428 3959.06 434.428 3959.06 433.634 3959.85 433.369 3960.91 433.899 3961.17 433.899 3961.17 433.899 3961.17 433.899 3961.43 433.104 3961.43 433.104 3961.43 433.104 3956.15 431.514 3956.15 431.514 3956.15 431.514 3955.89 432.309 3955.89 432.309 3955.89 432.309 3956.15 432.309 3956.15 432.309 3956.15 432.309 3956.94 432.574 3957.47 432.839 3957.74 433.104 3957.74 433.369 3957.74 434.164 3957.47 434.958 3955.89 441.582 3955.89 441.582 3955.89 441.582 3950.08 429.395 3950.08 429.395 3950.08 429.395 3945.85 428.07 3945.85 428.07 3945.85 428.07 3945.85 429.13 3945.85 429.13 3945.85 429.13 3946.38 429.13 3946.91 429.395 3947.17 429.925 3944.53 440.257 3944.53 440.257 3944.53 440.257 3944.26 441.317 3943.74 441.582 3942.68 441.317 3942.68 441.052 3942.68 441.052 3942.68 441.052 3942.42 442.112 3942.42 442.112 3942.42 442.112 3947.17 443.701 3947.17 443.701 3947.17 443.701 3947.43 442.641 3947.43 442.641 3947.43 442.641 3945.85 442.377 3945.58 441.582 3945.85 440.257 3947.96 431.779 3947.96 431.779 3947.96 431.779ZM3989.17 434.693C3989.43 434.693 3989.43 434.693 3989.43 434.693 3990.75 434.428 3991.28 435.223 3991.28 436.813 3991.81 442.641 3991.81 442.641 3991.81 442.641 3991.81 445.291 3990.49 446.88 3987.85 447.145 3985.47 447.41 3984.15 446.086 3983.89 443.701 3983.62 436.813 3983.62 436.813 3983.62 436.813 3983.36 435.753 3983.89 435.223 3984.94 434.958 3985.21 434.958 3985.21 434.958 3985.21 434.958 3985.21 434.164 3985.21 434.164 3985.21 434.164 3978.6 434.693 3978.6 434.693 3978.6 434.693 3978.6 435.488 3978.6 435.488 3978.6 435.488 3979.13 435.488 3979.13 435.488 3979.13 435.488 3980.19 435.488 3980.72 435.753 3980.72 437.078 3980.98 443.966 3980.98 443.966 3980.98 443.966 3981.25 447.41 3983.62 449 3987.58 448.735 3991.28 448.205 3993.13 446.086 3993.13 442.112 3992.6 436.283 3992.6 436.283 3992.6 436.283 3992.6 434.958 3993.13 434.428 3994.45 434.428 3994.45 434.428 3994.45 434.428 3994.45 434.428 3994.45 433.369 3994.45 433.369 3994.45 433.369 3989.17 433.899 3989.17 433.899 3989.17 433.899 3989.17 434.693 3989.17 434.693 3989.17 434.693ZM3998.15 435.753C4010.3 444.231 4010.3 444.231 4010.3 444.231 4011.36 443.966 4011.36 443.966 4011.36 443.966 4008.72 432.044 4008.72 432.044 4008.72 432.044 4008.45 431.249 4008.98 430.719 4010.3 430.454 4010.3 430.19 4010.3 430.19 4010.3 430.19 4010.3 429.395 4010.3 429.395 4010.3 429.395 4005.02 430.984 4005.02 430.984 4005.02 430.984 4005.28 431.779 4005.28 431.779 4005.28 431.779 4005.55 431.779 4005.55 431.779 4005.55 431.779 4006.34 431.514 4006.87 431.514 4007.13 431.514 4007.4 431.779 4007.66 432.309 4007.66 433.104 4009.25 439.992 4009.25 439.992 4009.25 439.992 3998.94 432.574 3998.94 432.574 3998.94 432.574 3994.72 433.634 3994.72 433.634 3994.72 433.634 3994.98 434.693 3994.98 434.693 3994.98 434.693 3995.51 434.428 3996.04 434.428 3996.57 434.693 3998.94 445.026 3998.94 445.026 3998.94 445.026 3999.21 446.086 3998.68 446.616 3997.62 446.88 3997.62 446.88 3997.62 446.88 3997.62 446.88 3997.89 447.94 3997.89 447.94 3997.89 447.94 4002.64 446.351 4002.64 446.351 4002.64 446.351 4002.38 445.556 4002.38 445.556 4002.38 445.556 4001.06 446.086 4000.26 445.556 4000 444.231 3998.15 435.753 3998.15 435.753 3998.15 435.753ZM4011.62 429.66C4011.36 428.865 4011.36 428.865 4011.36 428.865 4017.43 426.216 4017.43 426.216 4017.43 426.216 4017.7 427.01 4017.7 427.01 4017.7 427.01 4017.43 427.275 4017.43 427.275 4017.43 427.275 4016.38 427.54 4016.11 428.335 4016.38 429.395 4019.55 438.138 4019.55 438.138 4019.55 438.138 4019.81 439.197 4020.6 439.462 4021.66 438.932 4021.92 438.932 4021.92 438.932 4021.92 438.932 4022.19 439.727 4022.19 439.727 4022.19 439.727 4015.85 442.377 4015.85 442.377 4015.85 442.377 4015.58 441.582 4015.58 441.582 4015.58 441.582 4015.85 441.317 4015.85 441.317 4015.85 441.317 4016.91 441.052 4017.17 440.257 4016.91 439.197 4013.74 430.719 4013.74 430.719 4013.74 430.719 4013.47 429.395 4012.94 429.13 4011.89 429.66 4011.62 429.66 4011.62 429.66 4011.62 429.66ZM4030.91 435.753C4031.96 434.958 4031.96 434.958 4031.96 434.958 4031.17 422.771 4031.17 422.771 4031.17 422.771 4030.91 420.917 4031.17 419.592 4032.23 419.327 4032.23 419.062 4032.23 419.062 4032.23 419.062 4031.96 418.267 4031.96 418.267 4031.96 418.267 4027.21 421.182 4027.21 421.182 4027.21 421.182 4027.47 421.977 4027.47 421.977 4027.47 421.977 4028 421.712 4028 421.712 4028 421.712 4029.06 421.182 4029.58 421.447 4029.58 422.241 4030.38 431.514 4030.38 431.514 4030.38 431.514 4024.3 426.216 4024.3 426.216 4024.3 426.216 4023.77 425.686 4023.51 425.156 4023.51 424.891 4023.51 424.626 4024.04 424.096 4024.83 423.566 4025.09 423.566 4025.09 423.566 4025.09 423.566 4024.57 422.771 4024.57 422.771 4024.57 422.771 4018.23 426.48 4018.23 426.48 4018.23 426.48 4018.75 427.275 4018.75 427.275 4018.75 427.275 4018.75 427.275 4018.75 427.275 4018.75 427.275 4019.28 427.01 4019.81 426.745 4020.08 426.745 4020.34 426.745 4020.87 427.275 4021.66 427.805 4030.91 435.753 4030.91 435.753 4030.91 435.753ZM4041.21 412.704C4041.74 412.174 4042.53 412.439 4043.32 413.499 4044.11 412.969 4044.11 412.969 4044.11 412.969 4042.26 410.584 4042.26 410.584 4042.26 410.584 4032.75 417.738 4032.75 417.738 4032.75 417.738 4033.28 418.532 4033.28 418.532 4033.28 418.532 4033.28 418.532 4033.28 418.532 4033.28 418.532 4034.34 417.473 4035.13 417.738 4035.66 418.532 4040.42 426.216 4040.42 426.216 4040.42 426.216 4041.21 427.275 4040.94 428.07 4040.15 428.6 4039.36 429.13 4039.36 429.13 4039.36 429.13 4039.89 429.925 4039.89 429.925 4039.89 429.925 4050.19 421.977 4050.19 421.977 4050.19 421.977 4048.34 418.797 4048.34 418.797 4048.34 418.797 4047.81 419.327 4047.81 419.327 4047.81 419.327 4048.34 420.917 4048.08 421.977 4047.02 422.771 4044.11 424.891 4044.11 424.891 4044.11 424.891 4043.85 425.421 4043.32 425.421 4042.79 424.626 4040.68 421.182 4040.68 421.182 4040.68 421.182 4043.32 419.062 4043.32 419.062 4043.32 419.062 4044.38 418.267 4045.17 418.267 4045.7 419.327 4046.23 418.797 4046.23 418.797 4046.23 418.797 4043.85 414.823 4043.85 414.823 4043.85 414.823 4043.32 415.353 4043.32 415.353 4043.32 415.353 4043.85 416.413 4043.85 417.208 4042.79 417.738 4040.15 420.122 4040.15 420.122 4040.15 420.122 4037.51 415.883 4037.51 415.883 4037.51 415.883 4041.21 412.704 4041.21 412.704 4041.21 412.704ZM4052.04 411.644C4054.15 414.293 4054.15 414.293 4054.15 414.293 4054.94 415.088 4055.74 415.088 4056.53 414.028 4056.79 413.499 4056.79 413.499 4056.79 413.499 4057.32 414.293 4057.32 414.293 4057.32 414.293 4052.3 419.857 4052.3 419.857 4052.3 419.857 4051.77 419.327 4051.77 419.327 4051.77 419.327 4052.04 419.062 4052.04 419.062 4052.04 419.062 4052.83 418.267 4052.83 417.208 4052.04 416.413 4046.23 410.054 4046.23 410.054 4046.23 410.054 4045.7 408.995 4044.91 408.995 4044.11 410.054 4043.85 410.319 4043.85 410.319 4043.85 410.319 4043.06 409.79 4043.06 409.79 4043.06 409.79 4043.32 409.525 4043.32 409.525 4043.58 409.26 4044.11 408.465 4044.64 407.935 4044.91 407.405 4045.96 406.08 4046.75 405.286 4047.28 404.756 4049.4 402.371 4050.98 401.047 4052.3 401.312 4053.36 401.312 4054.15 401.577 4054.68 402.371 4056 403.696 4056 405.286 4054.94 407.405 4055.47 407.405 4056.53 407.405 4057.85 407.67 4058.91 407.935 4059.7 407.935 4060.49 407.935 4061.55 407.935 4062.6 407.67 4063.4 406.875 4063.66 407.405 4063.66 407.405 4063.66 407.405 4063.66 407.67 4063.13 407.935 4062.87 408.2 4062.08 409.26 4061.28 410.054 4060.75 410.319 4060.23 410.849 4059.43 410.849 4058.64 410.849 4058.38 410.849 4057.58 410.849 4056.53 410.584 4054.94 410.319 4053.89 410.319 4053.09 410.319 4052.04 411.644 4052.04 411.644 4052.04 411.644ZM4047.02 406.345C4047.81 405.286 4047.81 405.286 4047.81 405.286 4049.66 403.431 4051.25 403.431 4052.57 404.756 4054.15 406.345 4053.89 408.2 4052.04 410.319 4051.25 411.114 4051.25 411.114 4051.25 411.114 4047.02 406.345 4047.02 406.345 4047.02 406.345ZM4065.77 404.226C4066.04 403.696 4066.04 403.696 4066.04 403.696 4065.77 403.431 4065.77 403.431 4066.04 403.166 4066.04 403.166 4066.3 402.901 4066.57 402.636 4067.36 401.577 4067.89 400.782 4068.42 400.252 4070 397.602 4069.74 395.483 4067.89 393.628 4067.09 393.099 4066.04 392.834 4064.72 393.099 4063.92 393.364 4062.6 393.893 4061.28 394.688 4059.43 395.748 4058.38 396.013 4057.85 395.748 4057.06 394.953 4057.06 393.893 4057.85 392.834 4058.64 391.244 4060.23 390.714 4061.81 391.509 4062.34 390.714 4062.34 390.714 4062.34 390.714 4059.43 388.86 4059.43 388.86 4059.43 388.86 4059.17 389.389 4059.17 389.389 4059.17 389.389 4059.17 389.389 4059.17 389.389 4059.17 389.389 4059.17 389.654 4059.17 389.919 4059.17 389.919 4059.17 389.919 4058.91 390.184 4058.64 390.449 4057.85 390.979 4057.32 391.774 4056.79 392.569 4055.47 394.953 4055.74 397.073 4057.32 398.662 4059.17 399.457 4061.02 399.192 4062.87 397.602 4064.45 396.543 4065.77 396.278 4066.83 396.808 4067.89 397.602 4068.15 398.927 4067.36 400.252 4066.3 401.841 4064.72 402.371 4062.6 401.577 4062.34 402.371 4062.34 402.371 4062.34 402.371 4065.77 404.226 4065.77 404.226 4065.77 404.226ZM4061.81 386.21C4061.28 385.945 4061.28 385.945 4061.28 385.945 4064.45 379.322 4064.45 379.322 4064.45 379.322 4065.25 379.852 4065.25 379.852 4065.25 379.852 4064.98 380.117 4064.98 380.117 4064.98 380.117 4064.45 381.177 4064.72 381.971 4065.51 382.501 4072.64 387.005 4072.64 387.005 4072.64 387.005 4073.7 387.8 4074.49 387.535 4074.75 386.21 4075.02 385.945 4075.02 385.945 4075.02 385.945 4075.81 386.475 4075.81 386.475 4075.81 386.475 4072.64 392.834 4072.64 392.834 4072.64 392.834 4071.85 392.304 4071.85 392.304 4071.85 392.304 4071.85 392.304 4071.85 392.304 4071.85 392.304 4072.38 391.244 4072.38 390.449 4071.32 389.919 4064.19 385.415 4064.19 385.415 4064.19 385.415 4063.13 384.621 4062.6 384.886 4062.08 385.945 4061.81 386.21 4061.81 386.21 4061.81 386.21ZM4068.68 370.049C4069.47 367.665 4069.47 367.665 4069.47 367.665 4069.74 366.605 4070 366.075 4070.53 366.075 4070.79 365.81 4071.32 365.81 4072.64 366.075 4072.91 365.28 4072.91 365.28 4072.91 365.28 4068.94 364.221 4068.94 364.221 4068.94 364.221 4068.68 365.015 4068.68 365.015 4068.68 365.015 4068.94 365.28 4068.94 365.545 4068.94 366.075 4065.51 376.673 4065.51 376.673 4065.51 376.673 4065.25 376.673 4065.25 376.938 4065.25 377.202 4064.98 377.202 4064.98 377.202 4064.72 377.467 4064.45 377.997 4064.45 377.997 4064.45 377.997 4068.15 380.117 4068.15 380.117 4068.15 380.117 4068.42 379.057 4068.42 379.057 4068.42 379.057 4067.36 378.527 4066.83 377.997 4066.57 377.732 4066.57 377.202 4066.57 376.673 4066.83 375.878 4067.62 373.228 4067.62 373.228 4067.62 373.228 4076.6 376.938 4076.6 376.938 4076.6 376.938 4077.66 377.202 4077.92 377.997 4077.4 379.057 4077.4 379.852 4077.4 379.852 4077.4 379.852 4077.92 380.117 4077.92 380.117 4077.92 380.117 4080.57 372.434 4080.57 372.434 4080.57 372.434 4079.77 371.904 4079.77 371.904 4079.77 371.904 4079.77 372.434 4079.77 372.434 4079.77 372.434 4079.25 374.023 4078.45 374.288 4077.66 373.758 4068.68 370.049 4068.68 370.049 4068.68 370.049ZM4078.45 354.683C4081.36 355.213 4081.36 355.213 4081.36 355.213 4082.42 355.478 4082.94 354.948 4083.21 353.623 4083.21 353.093 4083.21 353.093 4083.21 353.093 4084 353.358 4084 353.358 4084 353.358 4082.94 361.306 4082.94 361.306 4082.94 361.306 4082.15 361.041 4082.15 361.041 4082.15 361.041 4082.15 360.512 4082.15 360.512 4082.15 360.512 4082.42 359.187 4081.89 358.657 4081.09 358.392 4078.19 358.127 4078.19 358.127 4078.19 358.127 4071.58 362.101 4071.58 362.101 4071.58 362.101 4071.06 362.366 4070.79 362.631 4070.53 362.896 4070.53 362.896 4070.53 363.426 4070.26 363.956 4070.26 364.221 4070.26 364.221 4070.26 364.221 4069.47 363.956 4069.47 363.956 4069.47 363.956 4070.53 356.538 4070.53 356.538 4070.53 356.538 4071.32 356.538 4071.32 356.538 4071.32 356.538 4071.32 357.067 4071.32 357.067 4071.32 357.067 4071.06 357.597 4071.06 357.862 4071.32 358.127 4071.58 358.392 4071.85 358.392 4072.11 358.127 4076.87 355.213 4076.87 355.213 4076.87 355.213 4073.43 351.769 4073.43 351.769 4073.43 351.769 4072.91 351.239 4072.64 351.239 4072.38 351.239 4072.11 351.504 4071.85 351.769 4071.85 352.563 4071.85 352.828 4071.85 352.828 4071.85 352.828 4071.06 352.563 4071.06 352.563 4071.06 352.563 4071.58 347 4071.58 347 4071.58 347 4072.38 347.265 4072.38 347.265 4072.38 347.265 4072.38 347.795 4072.38 348.325 4072.64 348.854 4072.64 349.119 4072.91 349.649 4073.43 350.179L4078.45 354.683Z" fill="#005375" fill-rule="evenodd"/><path d="M4043.88 266.27C4043.88 266.27 4044.94 267.081 4046.26 267.622 4047.59 268.432 4048.91 268.703 4049.44 268.703 4049.97 268.973 4049.18 269.514 4048.91 269.514 4048.65 269.784 4046.26 270.324 4045.21 270.054 4044.15 270.054 4042.56 269.243 4042.03 268.432 4041.5 267.081 4043.35 266.27 4043.35 266.27 4043.62 266 4043.88 266.27 4043.88 266.27ZM4053.41 269.784C4053.15 269.243 4052.35 269.243 4051.82 268.162 4051.56 267.351 4050.5 270.324 4050.5 270.865 4050.5 271.405 4050.24 271.946 4050.5 273.297 4050.5 273.838 4050.76 273.838 4050.5 273.838 4049.97 274.108 4048.12 273.838 4045.47 273.568 4044.41 273.297 4044.41 273.027 4043.88 273.297 4043.35 273.568 4042.56 274.649 4042.82 274.919 4042.82 275.46 4043.62 275.46 4043.62 275.73 4044.15 276 4044.15 276.541 4043.62 276.811 4043.09 277.351 4041.76 278.703 4041.5 278.703 4041.5 278.432 4040.44 277.892 4040.44 277.892 4040.18 277.892 4039.65 277.351 4039.12 277.892 4038.59 278.432 4037.53 279.243 4037.26 279.514 4037 279.784 4037 280.324 4037.26 281.676 4037.26 282.757 4038.06 284.649 4038.85 285.459 4039.91 286 4040.71 286 4041.5 285.459 4042.03 284.919 4043.09 283.838 4043.09 282.486 4043.09 281.405 4043.62 281.405 4043.88 281.676 4044.15 281.946 4044.68 282.486 4044.94 283.568 4045.21 284.649 4046.79 285.189 4047.06 284.919 4047.59 284.649 4048.38 284.108 4047.59 282.757 4046.79 281.135 4045.74 280.865 4045.21 280.054 4044.68 279.514 4044.15 279.514 4045.47 278.703 4047.06 277.892 4047.85 277.081 4047.32 275.73 4046.53 274.649 4045.74 274.378 4047.32 274.649 4048.91 274.649 4053.94 276.541 4054.74 276.811 4055.26 277.081 4056.32 277.081 4056.85 277.622 4057.38 278.162 4060.29 278.973 4061.09 278.703 4062.15 278.432 4064 277.622 4062.94 275.73 4061.88 273.838 4057.38 271.946 4056.59 271.676 4055.53 271.135 4053.68 270.324 4053.41 269.784ZM4051.56 274.108C4051.56 273.838 4052.35 272.757 4053.41 272.757 4054.47 273.027 4055.79 273.027 4056.85 274.108 4057.91 275.189 4057.91 274.919 4056.06 274.919 4054.47 274.649 4051.56 274.108 4051.56 274.108ZM4039.91 280.595C4040.18 280.595 4040.18 280.324 4040.44 280.324 4040.44 280.324 4040.71 280.324 4040.97 280.595 4041.24 280.595 4041.24 281.135 4041.24 281.405 4041.24 281.676 4041.24 282.216 4040.97 282.486 4040.97 282.486 4040.71 282.757 4040.44 282.757 4040.44 282.757 4039.91 283.027 4039.65 282.216 4039.65 281.135 4039.91 280.595 4039.91 280.595Z" fill="#005375" fill-rule="evenodd"/><path d="M3979 264C4024.11 264 4061 299.861 4061 343.632 4061 387.403 4024.11 423 3979 423 3951.14 423 3926.46 409.552 3911.6 388.985 3915.05 387.93 3932.03 385.03 3973.96 393.204 4021.46 402.433 4054.63 370.264 4054.63 370.264 4037.91 347.851 4037.91 347.851 4037.91 347.851 4030.48 352.333 4024.64 356.816 4019.07 359.189 4015.36 361.035 4011.91 362.881 4007.93 363.408 4003.68 363.935 3998.9 364.726 3993.33 364.726 3989.35 364.99 3985.1 364.99 3979.53 364.463 3971.83 363.672 3972.1 363.935 3960.42 361.299 3955.91 360.244 3948.75 358.925 3944.5 358.398 3929.38 357.08 3925.66 357.343 3925.93 356.816 3930.17 350.751 3930.17 350.751 3930.17 350.751 3930.17 350.751 3942.91 351.015 3962.02 354.97 3971.3 356.816 3981.65 359.717 3990.68 359.453 3999.43 359.453 4003.68 359.189 4006.33 358.398 4008.99 357.343 4017.48 355.234 4021.99 351.542 4026.24 348.906 4030.22 346.532 4034.46 342.841 3973.69 264.264 3973.69 264.264 3973.69 264.264 3975.55 264 3977.14 264 3979 264ZM3904.43 376.856C3904.43 376.592 3904.43 376.592 3904.7 376.592 3908.41 375.537 3922.74 375.01 3938.4 376.328 3955.12 377.647 3960.42 377.911 3976.88 381.075 4011.11 387.667 4038.18 367.627 4038.18 367.627 4034.99 362.881 4034.99 362.881 4034.99 362.881 4034.99 362.881 4024.11 370.527 4008.46 373.692 3995.72 376.328 3979.8 375.537 3966.79 372.373 3936.54 365.254 3901.51 369.473 3901.51 369.473 3920.88 341.259 3920.88 341.259 3920.88 341.259 3920.88 340.995 3936.81 339.149 3969.98 347.06 4003.15 355.234 4017.48 340.731 4017.48 340.731 3974.49 285.095 3974.49 285.095 3974.49 285.095 3939.72 335.721 3939.72 335.721 3939.72 335.721 3925.13 335.194 3925.13 335.194 3925.13 335.194 3973.69 264.264 3973.69 264.264 3973.69 264.264 3930.97 266.901 3897 301.443 3897 343.632 3897 355.498 3899.65 366.572 3904.43 376.856Z" fill="#005375" fill-rule="evenodd"/></g></svg>